<svg xmlns="http://www.w3.org/2000/svg" viewBox="0 0 80.72 62.65"><defs><style>.cls-1{fill:#800;}.cls-2{fill:none;stroke:#800;stroke-linecap:round;stroke-linejoin:round;}</style></defs><g id="圖層_2" data-name="圖層 2"><g id="圖層_2-2" data-name="圖層 2"><path class="cls-1" d="M2.81,10.2c1.48.59,2,1.22,2,2.26,0,1.29-1,2.12-2.67,2.12A4.3,4.3,0,0,1,0,14L.06,12.4H.61L1,13.86a2.27,2.27,0,0,0,1.13.25c1,0,1.71-.48,1.71-1.35,0-.7-.37-1.06-1.32-1.43L2,11.14C.85,10.65.12,10,.12,8.9c0-1.3,1.07-2,2.51-2a3,3,0,0,1,1.84.58L4.41,8.92H3.85l-.34-1.4a1.68,1.68,0,0,0-.84-.19c-.89,0-1.51.43-1.51,1.26s.43,1.1,1.2,1.41Z"/><path class="cls-1" d="M10.3,7.48c0,1,0,2,0,3V11c0,1,0,2,0,3l1.1.11v.36H8V14l1.1-.11c0-1,0-2,0-3v-.51c0-1,0-2,0-3H7.45L7.08,9H6.54l.08-2h6.15l.08,2h-.54l-.37-1.56Z"/><path class="cls-1" d="M20.5,12.42l0,2h-5.7V14l1-.11c0-1,0-2,0-3v-.51c0-1,0-2,0-3l-1-.11V7h5.49l0,1.93h-.53l-.33-1.49H16.94c0,1,0,1.94,0,3h1.59l.15-1.08h.46V11.9h-.46l-.14-1h-1.6c0,1.1,0,2.11,0,3.1h2.7L20,12.42Z"/><path class="cls-1" d="M24.7,11.46c0,.79,0,1.61,0,2.47l1.07.11v.36H22.53V14l1-.11c0-1,0-2,0-3v-.51c0-1,0-2,0-3l-1-.11V7h2.95c1.95,0,2.86.85,2.86,2.18s-.86,2.24-3.11,2.24Zm0-4c0,1,0,2,0,3V11h.6a1.67,1.67,0,0,0,1.89-1.82,1.6,1.6,0,0,0-1.84-1.77Z"/><path class="cls-1" d="M44.51,13.76v.64H36.23v-.64l3.08-.4c0-1.2,0-2.42,0-3.6V1.62l-2.8.3V1.16L41.27,0l.28.22-.06,3.16V9.76c0,1.18,0,2.38,0,3.6Z"/><path class="cls-1" d="M8,24.61c2.33.18,2.66.93,2.42,1.29l.74.64c0,.11-.13.16-.27.16H8.67v1.38c0,.68-.15,1.06-1.32,1.17a1,1,0,0,0-.24-.64,1.7,1.7,0,0,0-.93-.33v-.15s1.15.08,1.37.08.22-.05.22-.18V26.7H2l-.09-.29H7.77v-.74l1.24.1c0,.15-.12.22-.34.26v.38h1l.25-.32a.49.49,0,0,1-.31-.16A2.51,2.51,0,0,0,9,25.35c-1.39.18-3.27.36-5.9.58a.43.43,0,0,1-.28.21l-.49-1c.76,0,2.07,0,3.66,0v-.72H4.27v.13c0,.08-.39.28-.75.28H3.39V21.59l.95.39H6v-.74H2.23L2.15,21H6V20l1.26.12c0,.14-.11.24-.37.28V21h2.4l.53-.69s.61.48,1,.82c0,.11-.11.16-.26.16H6.92V22H8.69l.44-.48.94.7a.71.71,0,0,1-.39.2v2a1.15,1.15,0,0,1-.74.28H8.79v-.29H6.92v.72H8.69a6.35,6.35,0,0,0-.78-.37ZM3.68,26.92c2.72.1,2.21,2,1.23,1.54A3.64,3.64,0,0,0,3.61,27Zm.59-4.66v.79H6v-.79ZM6,24.12v-.78H4.27v.78Zm.89-1.86v.79H8.79v-.79Zm1.87,1.86v-.78H6.92v.78Z"/><path class="cls-1" d="M17.2,20.3c0,.14-.1.24-.36.28.22,3.77,1.14,6.2,4.58,7.61l0,.11a1.14,1.14,0,0,0-.95.91c-2.6-1.4-3.41-3.74-3.68-6.85a7.45,7.45,0,0,1-4.58,6.88l-.12-.15c3.8-2.59,3.73-5.81,3.74-8.93Z"/><path class="cls-1" d="M26.77,24.32c-.33.21-.73.44-1.25.74V28c0,.7-.13,1.12-1.21,1.23a1.37,1.37,0,0,0-.2-.71,1.15,1.15,0,0,0-.76-.33V28s.87.06,1.06.06.21-.05.21-.18V25.58l-.6.32a.37.37,0,0,1-.22.25L23.3,25l1.32-.29V22.57H23.46l-.08-.29h1.24V20l1.27.13c0,.14-.12.24-.37.27v1.92h.15l.46-.68s.52.48.82.81c0,.11-.12.16-.26.16H25.52v1.95l1.22-.32Zm5,.47s.51.41.81.69c0,.11-.12.16-.26.16H30.9a4.07,4.07,0,0,1-1,1.83c3,1,1.82,2.14,1,1.64A8.37,8.37,0,0,0,29.31,28,8.51,8.51,0,0,1,26,29.25l-.06-.14a6.87,6.87,0,0,0,2.81-1.39,18.64,18.64,0,0,0-1.92-.78,12.18,12.18,0,0,0,.64-1.3H26L26,25.35h1.61a13.77,13.77,0,0,0,.51-1.4l1.27.28c0,.1-.12.21-.42.22-.1.25-.23.56-.39.9H30a7.68,7.68,0,0,0,.11-1l1.31.22c0,.14-.16.21-.38.22a4.54,4.54,0,0,1-.09.51h.41Zm-5.56-1.18h3.49a12.87,12.87,0,0,0,.64-1.9L31.6,22a.35.35,0,0,1-.38.2A10.22,10.22,0,0,1,30,23.61h.91l.53-.65s.59.45.95.78c0,.11-.13.16-.27.16H26.3Zm.5-2-.08-.29h4l.5-.63s.57.44.9.76c0,.11-.12.16-.25.16Zm.65.08c2.08.77,1.3,2.29.55,1.67a4.16,4.16,0,0,0-.66-1.61Zm1,3.91c-.21.46-.44.93-.62,1.27.52.11,1,.22,1.39.33a3.94,3.94,0,0,0,.76-1.6Zm0-5.76c2.13.37,1.3,1.93.51,1.31a2.3,2.3,0,0,0-.6-1.24Z"/><path class="cls-1" d="M34.24,22.33c2.46.2,1.85,2,.95,1.45a3.22,3.22,0,0,0-1-1.37Zm3.1-.26c-.43,1.15-1.25,3.3-1.38,3.77a3.55,3.55,0,0,0-.17.89,8.28,8.28,0,0,1,.32,1.72.7.7,0,0,1-.72.76c-.21,0-.4-.15-.45-.5.16-1,.11-1.88-.13-2a.9.9,0,0,0-.5-.16v-.2h.45c.14,0,.18,0,.3-.2.23-.36.23-.36,2.11-4.1ZM35,20.16c2.53.22,1.95,2.05,1,1.53a3.51,3.51,0,0,0-1.08-1.45Zm5.84.18c0,.12-.13.18-.41.21a7.06,7.06,0,0,0,3.25,2.6v.13a1.16,1.16,0,0,0-.64.93,7.76,7.76,0,0,1-2.74-3.56,9.27,9.27,0,0,1-3.53,3.72l-.06-.1A10.9,10.9,0,0,0,39.47,20ZM42,24.79l.92.69a.7.7,0,0,1-.39.19V29a1.1,1.1,0,0,1-.79.23h-.15v-.77H38.6V29c0,.06-.29.23-.76.23h-.16V24.89l1,.41H41.5ZM41.14,23s.61.49,1,.85c0,.11-.13.16-.27.16H38.23l-.08-.29h2.44Zm.4,5.18V25.59H38.6v2.55Z"/><circle class="cls-1" cx="74.72" cy="56.65" r="6"/><polyline class="cls-2" points="57.66 20.89 74.22 20.89 74.22 55.05"/></g></g></svg>