<svg xmlns="http://www.w3.org/2000/svg" viewBox="0 0 114.77 48.8"><defs><style>.cls-1{fill:#800;}.cls-2{fill:none;stroke:#800;stroke-linecap:round;stroke-miterlimit:10;}</style></defs><g id="圖層_2" data-name="圖層 2"><g id="圖層_2-2" data-name="圖層 2"><path class="cls-1" d="M2.81,29.74c1.48.6,2,1.22,2,2.27,0,1.29-1,2.12-2.67,2.12A4.3,4.3,0,0,1,0,33.54L.06,32H.61L1,33.41a2.27,2.27,0,0,0,1.13.25c1,0,1.71-.48,1.71-1.35,0-.7-.37-1.06-1.32-1.43L2,30.69C.85,30.19.12,29.55.12,28.44c0-1.3,1.07-2,2.51-2A3,3,0,0,1,4.47,27l-.06,1.48H3.85l-.34-1.4a1.68,1.68,0,0,0-.84-.19c-.89,0-1.51.43-1.51,1.26s.43,1.1,1.2,1.41Z"/><path class="cls-1" d="M10.3,27c0,1,0,2,0,3v.51c0,1,0,2,0,3l1.1.11V34H8v-.36l1.1-.11c0-1,0-2,0-3V30c0-1,0-2,0-3H7.45l-.37,1.56H6.54l.08-2h6.15l.08,2h-.54L11.94,27Z"/><path class="cls-1" d="M20.5,32l0,2h-5.7v-.36l1-.11c0-1,0-2,0-3V30c0-1,0-2,0-3l-1-.11v-.36h5.49l0,1.93h-.53L19.43,27H16.94c0,1,0,1.94,0,3h1.59l.15-1.08h.46v2.54h-.46l-.14-1.05h-1.6c0,1.11,0,2.12,0,3.11h2.7L20,32Z"/><path class="cls-1" d="M24.7,31c0,.8,0,1.62,0,2.48l1.07.11V34H22.53v-.36l1-.11c0-1,0-2,0-3V30c0-1,0-2,0-3l-1-.11v-.36h2.95c1.95,0,2.86.85,2.86,2.18S27.48,31,25.23,31Zm0-4c0,1,0,2,0,3v.57h.6a1.66,1.66,0,0,0,1.89-1.82A1.6,1.6,0,0,0,25.35,27Z"/><path class="cls-1" d="M37.65,25.49A7.57,7.57,0,0,1,40,25.15c3,0,4.94,1.58,4.94,4.4s-2.14,4.7-5.3,4.7c-2.36,0-3.86-1.12-4.22-3.16a1.09,1.09,0,0,1,1.08-.74c.66,0,1,.36,1.24,1.42l.34,1.5a4.54,4.54,0,0,0,1.3.18c2.1,0,3.32-1.4,3.32-3.64s-1.28-3.52-3.3-3.52a7.18,7.18,0,0,0-2.18.3l-.58-.22.46-6.64h7.4v1.88h-6.6Z"/><path class="cls-1" d="M5.66,40.7s.59.46,1,.8c0,.11-.13.16-.27.16H1.6l-.07-.29H5.15ZM5.18,42s.56.43.9.76a.24.24,0,0,1-.26.16H2.12L2,42.65H4.68Zm0,1.29s.56.43.9.76a.24.24,0,0,1-.26.16H2.12L2,43.94H4.68Zm0,1.49.94.72a.71.71,0,0,1-.41.2v2.33a1.19,1.19,0,0,1-.73.26H4.86v-.55H3.1v.6c0,.08-.38.28-.74.28H2.24V44.9l.9.38H4.76ZM3.08,39.53c2.35.33,1.52,2.14.62,1.5A2.84,2.84,0,0,0,3,39.58Zm1.78,7.95V45.57H3.1v1.91Zm5-7.77s.65.54,1.06.91c0,.11-.14.16-.28.16H9.19V47.5c0,.67-.17,1.16-1.37,1.26a.94.94,0,0,0-.25-.68,1.68,1.68,0,0,0-1-.35v-.14s1.17.08,1.41.08.24-.07.24-.21V40.78h-2l-.08-.29H9.28Z"/><path class="cls-1" d="M20.58,45.91s.69.51,1.12.89c0,.11-.13.16-.28.16h-4v1.6c0,.06-.31.24-.81.24h-.17V47H12.4l-.09-.29h4.18v-1H14.71v.24c0,.09-.42.3-.8.3h-.14v-3.9a1.33,1.33,0,0,1-.34,0H13.3V39.7l.94.39h1.35l.44-.48,1,.71a.78.78,0,0,1-.4.19v1.43a1.27,1.27,0,0,1-.75.25h-.15v-.36H14.2v.26s-.13.13-.32.2l.91.37h4.36l.48-.5,1,.75a.83.83,0,0,1-.4.18v2.69a1.33,1.33,0,0,1-.8.29h-.16v-.39H17.47v1H20ZM14.2,40.37v1.18h1.49V40.37ZM14.71,43V44h1.78V43Zm1.78,2.44V44.3H14.71v1.09ZM18.36,42c0,.08-.41.28-.79.28h-.13V39.69l1,.4h1.34l.43-.49,1,.72a.87.87,0,0,1-.41.2V42a1.3,1.3,0,0,1-.76.26h-.15v-.39H18.36Zm-.89,1V44h1.78V43Zm1.78,2.44V44.3H17.47v1.09Zm-.89-5v1.18h1.48V40.37Z"/><path class="cls-1" d="M27,43.71a.75.75,0,0,1-.4.2v3.76a1.18,1.18,0,0,1-.69.24h-.13v-.64h-1v.84a.77.77,0,0,1-.67.26H24V44.82c-.21.34-.44.67-.67,1l-.15-.1a16.81,16.81,0,0,0,1.35-4.92H23.36l-.08-.29h2.46l.52-.66s.6.46,1,.79c0,.11-.12.16-.26.16H25.48a12.14,12.14,0,0,1-.76,2.61l.21.09h.78l.42-.46ZM25.81,47V43.77h-1V47Zm5.32-4.75c.08-.26.2-.7.29-1h-2a12.47,12.47,0,0,1-1,1.84h2.56l.45-.56s.53.39.86.69c0,.11-.12.16-.26.16H30.46v1.29H31L31.4,44s.5.42.8.71c0,.11-.12.16-.26.16H30.46v1.29H31l.43-.59s.5.42.81.72c0,.11-.12.16-.26.16H30.46v1.39h.79l.48-.64s.56.45.88.77c0,.11-.12.16-.26.16H28.42v.34c0,.07-.27.27-.68.27h-.15V44.26a8.62,8.62,0,0,1-.81.79L26.67,45a12.33,12.33,0,0,0,1.9-3.78h-.74a1.53,1.53,0,0,1-.32,1.14.48.48,0,0,1-.74,0,.52.52,0,0,1,.25-.64,1.7,1.7,0,0,0,.52-1.16h.17a4,4,0,0,1,.09.42h.85c.15-.5.26-1,.36-1.4l1.27.39c0,.12-.13.2-.39.18-.09.27-.19.54-.3.83h1.78l.45-.46.81.79c-.07.08-.17.1-.37.11-.25.27-.7.72-1,1Zm-2.71,1.09v1.29h1.22V43.32Zm1.22,1.58H28.42v1.29h1.22Zm0,1.58H28.42v1.39h1.22Zm-.14-4.93c1.74.65.92,1.9.32,1.31a2.29,2.29,0,0,0-.43-1.25Z"/><path class="cls-1" d="M37.58,40.81s.55.43.87.74c0,.11-.12.16-.26.16H34.58l-.08-.29h2.59Zm-.78,1.88.45-.56s.52.39.83.69c0,.11-.12.16-.26.16H35l-.08-.29Zm.45.72a10.61,10.61,0,0,1,.82.7c0,.11-.12.16-.26.16H35L34.91,44H36.8Zm1,2.09a.74.74,0,0,1-.39.19v2.36c0,.08-.41.27-.68.27H37v-.5H35.83v.6c0,.08-.36.27-.69.27H35V44.9l.85.37h1l.41-.46Zm-2.67-5.86c2.3.31,1.53,2,.65,1.41a3.23,3.23,0,0,0-.73-1.35ZM37,47.53v-2H35.83v2Zm1.81-2.06a3,3,0,0,1,0,2.25.5.5,0,0,1-.8.1.54.54,0,0,1,.17-.69,2.81,2.81,0,0,0,.47-1.67Zm-.25-5-.09-.29H42.3l.46-.47.87.72a.62.62,0,0,1-.39.17c-.06,2.15-.22,3.11-.61,3.45a1.52,1.52,0,0,1-1.05.32.71.71,0,0,0-.16-.55,1.57,1.57,0,0,0-.73-.28v-.16c.31,0,.84.07,1,.07A.39.39,0,0,0,42,43.4c.21-.2.32-1.12.37-2.89H41.22c-.22,2-.75,3.45-2.93,4.26l-.07-.15a3.74,3.74,0,0,0,1.65-2,.43.43,0,0,1-.53-.05,4,4,0,0,0-.82-1.38l.1-.06c.93.26,1.32.67,1.4,1a9,9,0,0,0,.24-1.64Zm4,7.19c.23.09.29.2.29.35,0,.34-.34.51-1.67.51h-.86c-.78,0-.92-.17-.92-.74V45.09l1.12.11c0,.13-.11.22-.3.25v2.17c0,.13,0,.16.31.16H41.9c.1,0,.15,0,.19-.12a7.49,7.49,0,0,0,.33-1.1h.12Zm-2-3.38c2.27,1,1.47,2.67.7,2a3.65,3.65,0,0,0-.81-1.92Zm1.92,1c2.2,1.26,1.35,3,.59,2.29a4.73,4.73,0,0,0-.71-2.24Z"/><circle class="cls-1" cx="108.77" cy="6" r="6"/><polyline class="cls-2" points="108.77 6 75.96 38.82 48.8 38.82"/></g></g></svg>