<svg xmlns="http://www.w3.org/2000/svg" viewBox="0 0 101.02 47.14"><defs><style>.cls-1{fill:#800;}.cls-2{fill:none;stroke:#800;stroke-linecap:round;stroke-linejoin:round;}</style></defs><g id="圖層_2" data-name="圖層 2"><g id="圖層_2-2" data-name="圖層 2"><path class="cls-1" d="M2.81,10c1.48.6,2,1.21,2,2.26,0,1.29-1,2.12-2.67,2.12A4.3,4.3,0,0,1,0,13.81l.06-1.59H.61L1,13.68a2.27,2.27,0,0,0,1.13.25c1,0,1.71-.48,1.71-1.35,0-.7-.37-1.06-1.32-1.43L2,11C.85,10.46.12,9.83.12,8.72c0-1.3,1.07-2,2.51-2a3,3,0,0,1,1.84.58L4.41,8.74H3.85l-.34-1.4a1.68,1.68,0,0,0-.84-.19c-.89,0-1.51.43-1.51,1.26s.43,1.1,1.2,1.41Z"/><path class="cls-1" d="M10.3,7.3c0,1,0,2,0,3v.5c0,1,0,2,0,3l1.1.11v.36H8v-.36l1.1-.11c0-1,0-2,0-3v-.5c0-1,0-2,0-3H7.45L7.08,8.86H6.54l.08-2h6.15l.08,2h-.54L11.94,7.3Z"/><path class="cls-1" d="M20.5,12.24l0,2h-5.7v-.36l1-.11c0-1,0-2,0-3v-.5c0-1,0-2,0-3l-1-.11V6.86h5.49l0,1.93h-.53L19.43,7.3H16.94c0,1,0,1.94,0,3h1.59l.15-1.07h.46v2.53h-.46l-.14-1.05h-1.6c0,1.11,0,2.12,0,3.11h2.7L20,12.24Z"/><path class="cls-1" d="M24.7,11.27c0,.8,0,1.62,0,2.48l1.07.11v.36H22.53v-.36l1-.11c0-1,0-2,0-3v-.5c0-1,0-2,0-3l-1-.11V6.86h2.95c1.95,0,2.86.85,2.86,2.18s-.86,2.23-3.11,2.23Zm0-4c0,1,0,2,0,3v.56h.6A1.65,1.65,0,0,0,27.19,9a1.6,1.6,0,0,0-1.84-1.77Z"/><path class="cls-1" d="M44.75,0V1.2l-5.14,13h-2l-.2-.2L43.51,1.88H35.67V0Z"/><path class="cls-1" d="M5.85,21s.59.46,1,.8c0,.11-.13.16-.27.16H1.79l-.07-.29H5.34ZM5.37,22.3s.56.43.9.76a.24.24,0,0,1-.26.16H2.31l-.08-.29H4.87Zm0,1.28s.56.44.9.76c0,.12-.13.16-.26.16H2.31l-.08-.29H4.87Zm0,1.49.94.72a.71.71,0,0,1-.41.2v2.33a1.19,1.19,0,0,1-.73.26H5.05V28H3.29v.6c0,.08-.38.28-.74.28H2.43V25.17l.9.38H5ZM3.27,19.81c2.35.33,1.52,2.14.62,1.5a2.84,2.84,0,0,0-.71-1.45Zm1.78,7.94V25.84H3.29v1.91Zm5-7.76s.65.53,1.06.91c0,.11-.14.16-.28.16H9.38v6.71c0,.67-.17,1.16-1.37,1.26a.94.94,0,0,0-.25-.68,1.68,1.68,0,0,0-1-.35v-.14s1.17.08,1.41.08.24-.07.24-.21V21.06h-2l-.08-.29H9.47Z"/><path class="cls-1" d="M20.77,26.18s.69.51,1.12.89c0,.11-.13.16-.28.16H17.66v1.6c0,.06-.31.24-.81.24h-.17V27.23H12.6l-.09-.29h4.17V26H14.91v.24c0,.09-.42.3-.8.3H14V22.6a1.33,1.33,0,0,1-.34,0H13.5V20l.94.39h1.35l.44-.48.95.71a.78.78,0,0,1-.4.19v1.43a1.27,1.27,0,0,1-.74.25h-.15v-.36H14.4v.26c0,.05-.13.13-.32.2l.91.37h4.35l.48-.5,1,.75a.83.83,0,0,1-.4.18v2.68a1.33,1.33,0,0,1-.8.29h-.16V26H17.66v1h2.5ZM14.4,20.65v1.18h1.49V20.65Zm.51,2.58v1.06h1.77V23.23Zm1.77,2.43V24.58H14.91v1.08Zm1.87-3.38c0,.08-.41.28-.79.28h-.13V20l1,.4h1.34l.43-.49,1,.72a.87.87,0,0,1-.41.2v1.44a1.3,1.3,0,0,1-.76.26H20v-.39H18.55Zm-.89.95v1.06h1.78V23.23Zm1.78,2.43V24.58H17.66v1.08Zm-.89-5v1.18H20V20.65Z"/><path class="cls-1" d="M32.36,25c0,.12-.1.21-.34.25v3.51c0,.08-.41.24-.76.24h-.17v-.81h-5.9l-.31.51-1-.63a1.64,1.64,0,0,1,.31-.26v-3l1.31.13c0,.1-.11.19-.39.23v2.71h2.47V23.94H25.67l-.31.49-1-.6a1.6,1.6,0,0,1,.3-.26V20.74l1.3.13c0,.11-.11.2-.39.24v2.54h2V19.84l1.32.14c0,.14-.1.24-.36.28v3.39H30.6v-2.9l1.27.13c0,.13-.1.22-.35.26v3.11c0,.08-.41.25-.75.25H30.6v-.56H28.55v3.92h2.54v-3Z"/><path class="cls-1" d="M36.21,21.68a8.68,8.68,0,0,1-1.83.83l-.08-.12a7.93,7.93,0,0,0,2.62-2.64l1.2.55c0,.1-.14.15-.36.13a6,6,0,0,1-.85.77l.51.19a.36.36,0,0,1-.31.18v1.52a1.17,1.17,0,0,1-.74.24h-.16Zm-1.84,7.24a9.43,9.43,0,0,0,3.45-1.79l1.1.75c-.08.1-.26.13-.54.05a11.7,11.7,0,0,1-4,1.14Zm6.93-1.43V27H36.85v.38c0,.1-.41.3-.79.3h-.14V23.26l1,.41H41.2l.46-.49,1,.74a.61.61,0,0,1-.37.17v3.14a1.4,1.4,0,0,1-.8.26ZM36.85,24v.72H41.3V24Zm0,1.74H41.3V25H36.85Zm4.45,1V26H36.85v.73Zm1.9-4.47c.29.09.38.19.38.35,0,.39-.42.51-2.33.51H39.94c-1,0-1.22-.16-1.22-.8V19.82l1.2.12c0,.12-.11.21-.31.24v.9h1.94l.53-.69s.59.48.94.82c0,.11-.12.16-.27.16H39.61v.79c0,.15,0,.19.47.19h2.33a.35.35,0,0,0,.28-.11,4.34,4.34,0,0,0,.36-.87h.11Zm-3.68,5.08c5.4.36,3.73,2.27,2.77,1.54a8.3,8.3,0,0,0-2.81-1.4Z"/><circle class="cls-1" cx="95.02" cy="41.14" r="6"/><polyline class="cls-2" points="95.02 41.14 73.7 19.81 51.31 19.81"/></g></g></svg>