<svg xmlns="http://www.w3.org/2000/svg" viewBox="0 0 97.52 45.64"><defs><style>.cls-1{fill:#800;}.cls-2{fill:none;stroke:#800;stroke-linecap:round;stroke-linejoin:round;}</style></defs><g id="圖層_2" data-name="圖層 2"><g id="圖層_2-2" data-name="圖層 2"><path class="cls-1" d="M55.31,10.32c1.48.6,2,1.22,2,2.26,0,1.29-1.05,2.12-2.67,2.12a4.23,4.23,0,0,1-2.16-.59l.06-1.59h.54L53.45,14a2.27,2.27,0,0,0,1.13.25c1,0,1.71-.48,1.71-1.35,0-.7-.37-1.06-1.32-1.42l-.43-.2c-1.18-.49-1.91-1.13-1.91-2.24,0-1.3,1.06-2,2.5-2A3,3,0,0,1,57,7.56L56.91,9h-.56L56,7.64a1.68,1.68,0,0,0-.84-.19c-.89,0-1.51.43-1.51,1.26s.43,1.1,1.2,1.41Z"/><path class="cls-1" d="M62.81,7.6c0,1,0,2,0,3v.51c0,1,0,2,0,3l1.1.11v.36H60.5v-.36l1.1-.11c0-1,0-2,0-3v-.51c0-1,0-2,0-3H60l-.37,1.56h-.54l.08-2h6.15l.08,2h-.54L64.45,7.6Z"/><path class="cls-1" d="M73,12.54l0,2H67.27v-.36l1-.11c0-1,0-2,0-3v-.51c0-1,0-2,0-2.95l-1-.11V7.16h5.5l0,1.93h-.53L71.94,7.6H69.45c0,1,0,1.94,0,3H71l.15-1.08h.46V12h-.46L71,11h-1.6c0,1.1,0,2.11,0,3.1h2.7l.33-1.54Z"/><path class="cls-1" d="M77.21,11.58c0,.79,0,1.61,0,2.47l1.06.11v.36H75v-.36l1-.11c0-1,0-2,0-3v-.51c0-1,0-2,0-2.95l-1-.11V7.16H78c1.94,0,2.85.85,2.85,2.18s-.86,2.24-3.1,2.24Zm0-4c0,1,0,2,0,3v.58h.6a1.66,1.66,0,0,0,1.88-1.82,1.6,1.6,0,0,0-1.83-1.77Z"/><path class="cls-1" d="M96.82.56c-4.07.94-6.19,3.2-6.59,6.6a4.59,4.59,0,0,1,3.28-1.4c2.43,0,4,1.76,4,4.36a4.38,4.38,0,0,1-4.65,4.7c-3.06,0-4.94-2.26-4.94-6.12,0-4.4,3.28-8.08,8.76-8.7Zm-1.5,9.78c0-2.32-1-3.4-2.51-3.4a3.82,3.82,0,0,0-2.64,1,3.85,3.85,0,0,0,0,.48c0,3.8,1.06,5.62,2.74,5.62C94.32,14,95.32,12.84,95.32,10.34Z"/><path class="cls-1" d="M55.47,23.54V29c0,.12-.33.35-.76.35h-.16v-9l1,.43H57.1l.42-.46.92.69a.64.64,0,0,1-.37.18v2.49a1.15,1.15,0,0,1-.74.28h-.14v-.45Zm0-2.44V22h1.72V21.1Zm1.72,2.15V22.3H55.47v.95ZM60,26.54V28.7a.89.89,0,0,1-.68.21h-.15V26.54h-1.1A2.91,2.91,0,0,1,56.14,29l-.1-.12a3.13,3.13,0,0,0,1.22-2.34H56l-.08-.28h1.33c0-.11,0-.23,0-.34V24.83h-1l-.08-.29H59.9l.48-.61s.54.43.87.75c0,.11-.12.15-.26.15H60v1.43h.16l.46-.62s.52.43.84.74c0,.11-.13.16-.27.16Zm-.83-.28V24.83H58.09v1.09c0,.11,0,.22,0,.34Zm4-5.21a.82.82,0,0,1-.42.21V28.2c0,.68-.13,1.06-1.2,1.17a1.22,1.22,0,0,0-.17-.66,1.09,1.09,0,0,0-.7-.33v-.14l.94.05c.16,0,.2-.06.2-.19V23.54H60v.11c0,.08-.39.28-.76.28h-.13V20.42l.93.39h1.65l.44-.53ZM60,21.1V22h1.79V21.1Zm1.79,2.15V22.3H60v.95Z"/><path class="cls-1" d="M69.22,22.64l-.6.18a11.25,11.25,0,0,1-.85,3.69c1.71,1.17.94,2.13.25,1.7a4.73,4.73,0,0,0-.68-.9A6.13,6.13,0,0,1,65.1,29.4L65,29.3a6.41,6.41,0,0,0,1.88-2.46,12,12,0,0,0-1.59-1.26c.15-.51.32-1.27.48-2.08l-.25.05a.35.35,0,0,1-.27.22l-.29-1c.25,0,.58,0,1,0,.19-1,.35-2.07.4-2.68l1.26.22c0,.11-.1.21-.39.24-.09.56-.23,1.33-.4,2.17l1-.07c0-.35,0-.71,0-1.05l1.3.22c0,.16-.14.25-.38.26l0,.5.57-.06Zm-2.08,3.5a12.07,12.07,0,0,0,.57-3.08l-1.06.25c-.18.83-.38,1.67-.57,2.34A9.82,9.82,0,0,1,67.14,26.14Zm5-4.23c3.07,1.1,2.29,3.3,1.28,2.54a3.52,3.52,0,0,0-.23-.77c-.91.23-2.2.51-3.69.79a.59.59,0,0,1-.24.19l-.42-1.13a1.18,1.18,0,0,0,.3-.13A10.18,10.18,0,0,0,71,20.1l1.39.48c0,.11-.15.19-.36.19a14.47,14.47,0,0,1-2.47,2.78c.84,0,2.12-.05,3.48-.11A6.7,6.7,0,0,0,72,22Zm1,3,.89.67a.52.52,0,0,1-.38.18v3.22a1.07,1.07,0,0,1-.76.23h-.16v-.71H70.2V29c0,.06-.27.23-.72.23h-.15V25l1,.39h2.36Zm-.41,3.3v-2.5H70.2v2.5Z"/><path class="cls-1" d="M84.55,26.73c-.06.1-.15.14-.37.1a7.94,7.94,0,0,1-1.69.62,8.73,8.73,0,0,0,2.84.95v.12a1,1,0,0,0-.76.85,5.67,5.67,0,0,1-3.73-3.14A6,6,0,0,1,79.6,27v1.22l1.77-.41,0,.13c-.48.27-1.37.78-2.39,1.28a.63.63,0,0,1-.25.24l-.52-.95c.37-.22.43-.31.43-.46v-.65a15,15,0,0,1-2.44.63l-.06-.15a9.28,9.28,0,0,0,3.42-1.8H76.27l-.08-.29h4.42a1.72,1.72,0,0,0-.68-.73L80,25a1.75,1.75,0,0,1,.44,0,.61.61,0,0,0-.11-.38.73.73,0,0,0-.44-.18v-.15s.38,0,.53,0,.15-.06.15-.16v-.67H79.46v1.63c0,.09-.37.26-.68.26h-.16V23.46h-1v1.39c0,.07-.36.24-.67.24h-.11V22.82l.84.35h.89v-.7H76.24l-.08-.28h2.46v-.83H77.47a3.38,3.38,0,0,1-.72.74L76.6,22a6.52,6.52,0,0,0,.54-1.89l1.13.34c0,.12-.15.2-.37.2s-.15.28-.23.41h1v-1l1.18.12c0,.14-.1.23-.34.26v.61h.71l.47-.59s.51.41.87.72c0,.11-.13.16-.27.16H79.46v.83h1l.47-.6s.55.42.88.72c0,.11-.13.16-.26.16H79.46v.7h1l.38-.44.94.69a.82.82,0,0,1-.43.2v.55c0,.48-.11.73-.91.79.86,0,1,.59.71.85h2.49l.53-.64a2.63,2.63,0,0,1-.74.15.84.84,0,0,0-.18-.55,1.35,1.35,0,0,0-.73-.27v-.13l1,.05c.14,0,.18,0,.18-.17V20.17l1.23.12c0,.14-.13.22-.35.26v3.72c0,.42-.06.71-.41.89a12.11,12.11,0,0,1,1,.78c0,.11-.13.16-.28.16H81a3.93,3.93,0,0,0,1.18,1.15,8.54,8.54,0,0,0,1.3-1.1Zm-1.61-2.92c0,.07-.36.22-.66.22h-.16v-3.6l1.17.12c0,.13-.1.22-.35.26Z"/><path class="cls-1" d="M90.69,20.55c0,.12-.18.19-.41.18A15.51,15.51,0,0,1,89.15,23l.5.19c0,.09-.12.16-.29.19v5.75a1.25,1.25,0,0,1-.79.28H88.4V24a8.06,8.06,0,0,1-1.32,1.35L87,25.26a16.22,16.22,0,0,0,2.38-5.17Zm2.65,1.91v1.83h1.12l.54-.71s.63.49,1,.84c0,.11-.12.16-.27.16H93.34v1.85h1.2l.59-.74s.66.51,1.06.87a.25.25,0,0,1-.27.16H93.34V29.1c0,.06-.29.26-.8.26h-.17v-6.9h-.48a9.25,9.25,0,0,1-2.07,2.33l-.12-.08a15.42,15.42,0,0,0,2.14-4.61l1.35.48c0,.12-.16.19-.39.18a13.32,13.32,0,0,1-.73,1.41h2.69l.6-.74s.65.51,1.06.87c0,.11-.14.16-.28.16Z"/><circle class="cls-1" cx="6" cy="39.64" r="6"/><polyline class="cls-2" points="6 39.63 25.84 19.79 47.43 19.79"/></g></g></svg>