<svg xmlns="http://www.w3.org/2000/svg" viewBox="0 0 117.33 90.31"><defs><style>.cls-1{fill:#800;}.cls-2{fill:none;stroke:#800;stroke-linecap:round;stroke-linejoin:round;}</style></defs><g id="圖層_2" data-name="圖層 2"><g id="圖層_2-2" data-name="圖層 2"><path class="cls-1" d="M65.21,10.32c1.48.6,2,1.22,2,2.26,0,1.29-1,2.12-2.67,2.12a4.3,4.3,0,0,1-2.17-.59l.06-1.59H63L63.35,14a2.27,2.27,0,0,0,1.13.25c1,0,1.71-.48,1.71-1.35,0-.7-.37-1.06-1.32-1.42l-.43-.2c-1.19-.49-1.92-1.14-1.92-2.24,0-1.3,1.07-2,2.51-2a3,3,0,0,1,1.84.58L66.81,9h-.56l-.34-1.4a1.68,1.68,0,0,0-.84-.19c-.89,0-1.51.43-1.51,1.26s.43,1.1,1.2,1.41Z"/><path class="cls-1" d="M72.7,7.6c0,1,0,2,0,3v.51c0,1,0,2,0,3l1.1.11v.36H70.39v-.36l1.1-.11c0-1,0-2,0-3v-.51c0-1,0-2,0-3H69.85l-.37,1.56h-.54l.08-2h6.15l.08,2h-.54L74.34,7.6Z"/><path class="cls-1" d="M82.9,12.54l0,2H77.16v-.36l1-.11c0-1,0-2,0-3v-.51c0-1,0-2,0-2.95l-1-.11V7.16h5.5l0,1.93h-.53L81.83,7.6H79.34c0,1,0,1.94,0,3h1.59l.15-1.07h.46V12h-.46l-.14-1h-1.6c0,1.11,0,2.12,0,3.11H82l.33-1.54Z"/><path class="cls-1" d="M87.1,11.57c0,.8,0,1.62,0,2.48l1.07.11v.36H84.93v-.36l1-.11c0-1,0-2,0-3v-.51c0-1,0-2,0-2.95l-1-.11V7.16h2.95c2,0,2.86.85,2.86,2.18s-.86,2.23-3.11,2.23Zm0-4c0,1,0,2,0,3v.57h.6a1.65,1.65,0,0,0,1.89-1.81,1.6,1.6,0,0,0-1.84-1.77Z"/><path class="cls-1" d="M107.33,12.64v1.88H98.07V13.08c1.2-1.24,2.36-2.48,3.34-3.48,2.24-2.36,3.14-3.94,3.14-5.78s-1-3-2.66-3a5.73,5.73,0,0,0-1.08.12l-.46,1.7c-.24,1.08-.68,1.42-1.26,1.42a1.23,1.23,0,0,1-1.1-.7C98.25,1.14,100.27,0,102.57,0c2.88,0,4.22,1.56,4.22,3.8,0,1.92-1.22,3.52-4.68,6.5-.62.56-1.54,1.42-2.56,2.34Z"/><path class="cls-1" d="M61.25,20.19s.64.51,1,.86c0,.11-.13.16-.27.16h-2a7.61,7.61,0,0,1-.88,1.14h1.35l.45-.48.91.71a.54.54,0,0,1-.34.17V27.2a1.3,1.3,0,0,1-.78.28h-.15v-.41H58.28v.21c0,.1-.38.32-.77.32h-.14V24.2a.69.69,0,0,1-.35.08,12.82,12.82,0,0,1-1.19,1.55l-.11-.07c.12-.45.27-1.15.36-1.66h-.82v4.06c0,.65-.14,1.12-1.2,1.21a1,1,0,0,0-.18-.65,1.2,1.2,0,0,0-.76-.32v-.14s.86.06,1.05.06.2-.06.2-.18v-4H53l-.09-.29H56l.49-.5.86.81V21.94l1,.41h.56c0-.31.09-.76.12-1.14H57.09l0,0c-.07.08-.19.1-.4.11a8.6,8.6,0,0,1-1.52,1.07c.82.67.37,1.54-.31,1.16a3.73,3.73,0,0,0-1.46-1.68l.08-.09a3.85,3.85,0,0,1,1.43.43,10.89,10.89,0,0,0,.71-1.06H53.15l-.09-.29h2.62l.52-.51.71.68,0-.13h3.79Zm-5.13,9a7.57,7.57,0,0,0,2.3-1.89l1.1.67c-.05.09-.16.1-.33.06a8.34,8.34,0,0,1-3,1.3Zm2.16-6.61v1.18h2.35V22.63Zm0,2.66h2.35V24.1H58.28Zm2.35,1.49V25.57H58.28v1.21Zm-.92.62c3,.4,2.57,2.35,1.58,1.89a5.83,5.83,0,0,0-1.67-1.8Z"/><path class="cls-1" d="M66,21.24a6.07,6.07,0,0,1-1.8,1.66l-.12-.11A8.22,8.22,0,0,0,65.52,20l1.27.4a.35.35,0,0,1-.39.19l-.21.36h1.39l.46-.59s.52.41.83.72c0,.11-.12.16-.26.16Zm6,5.17s.61.48,1,.84c0,.11-.13.16-.27.16H70.46v1.74c0,.08-.41.23-.74.23h-.17v-2h-2c-.21,1-.78,1.62-3.16,2l-.07-.18c1.67-.44,2.18-.95,2.36-1.8H64.38l-.08-.29h2.39c0-.27,0-.57,0-.9l1.21.14c0,.12-.11.22-.32.24,0,.18,0,.36-.06.52h2v-.87l1.06.1v-.28h-4v.25c0,.09-.39.3-.77.3h-.14V22.19l1,.42h3.79l.27-.3-.1,0a1.35,1.35,0,0,0-.49-.78l.09-.08c1.27,0,1.28.7.92.9l.72.54a.74.74,0,0,1-.39.19v3.13a1.34,1.34,0,0,1-.72.25c0,.11-.12.19-.35.22v.49h1Zm-5.62-5c1.75.07,1.14,1.36.45.91a1.65,1.65,0,0,0-.56-.84Zm.28,1.5v.76h4V22.9Zm4,1.05h-4v.76h4Zm0,1.84V25h-4v.79Zm1.6-5.48s.56.44.92.77c0,.11-.13.16-.27.16h-3a5.08,5.08,0,0,1-1.46,1.2l-.12-.09A7.31,7.31,0,0,0,69.4,20l1.22.49c-.05.11-.17.19-.39.16L70,21H71.7Z"/><path class="cls-1" d="M83.61,22.6a10,10,0,0,1-1.21,4.11,5.86,5.86,0,0,0,1.94,1.86l0,.09a1,1,0,0,0-.82.71,5.89,5.89,0,0,1-1.55-2,6.9,6.9,0,0,1-2.57,2l-.09-.11a7.31,7.31,0,0,0,2.35-2.67,13.55,13.55,0,0,1-.68-3,6.67,6.67,0,0,1-.85,1.23L80,24.73a13.41,13.41,0,0,0,.79-2.5.25.25,0,0,1-.22.09h-.91v1a1.1,1.1,0,0,1-.67.24h-.13v-.22H78V24h.86l.38-.38.81.6a.63.63,0,0,1-.31.15v1.13a1.27,1.27,0,0,1-.66.22h-.14V25.4H76.2v.11c0,.06-.25.24-.65.24h-.13V23.6l.9.36h.86v-.65h-.83v0c0,.06-.26.24-.65.24h-.14V22.32H75L74.88,22h.68V20.67l.91.37h.71v-1l1.19.12c0,.14-.12.24-.37.28V21h.72l.39-.41.83.63a.63.63,0,0,1-.33.16V22h.07l.4-.51a9,9,0,0,1,.68.63,17.32,17.32,0,0,0,.32-2l1.32.29c0,.14-.14.23-.37.24a15.57,15.57,0,0,1-.49,1.67h1.22l.53-.71s.62.49,1,.84c0,.11-.13.16-.27.16Zm-3.29,3.85-1.16.16a3.05,3.05,0,0,1-.64,1.15c1.52.51,1,1.4.4,1.22a7.32,7.32,0,0,0-1.14-.6,7.41,7.41,0,0,1-2.72.94L75,29.17a6.09,6.09,0,0,0,2.28-1,10.91,10.91,0,0,0-1.67-.53c.1-.16.21-.4.34-.66l-.41.05a.41.41,0,0,1-.29.2L75,26.31h1.25c.15-.36.28-.69.34-.89l1.18.2c0,.12-.12.23-.42.25-.06.12-.12.27-.18.43h1.29a4.52,4.52,0,0,0,.08-.63l1.11.26c0,.14-.17.22-.38.21l0,.15,1.08,0ZM76.2,25.12h1v-.86h-1ZM76.35,22h.83v-.7h-.83Zm.83,1v-.7h-.83V23Zm-.29,3.86c-.09.2-.2.39-.28.58a8.18,8.18,0,0,1,1.26.14,2.73,2.73,0,0,0,.47-.89ZM78,21.33V22h.81v-.7Zm.81,1H78V23h.81ZM78,24.26v.86h.94v-.86Zm3.42-1.66c-.09.23-.19.44-.29.65a10.5,10.5,0,0,0,.81,2.63,11.05,11.05,0,0,0,.67-3.28Z"/><path class="cls-1" d="M94.33,28.14s.65.5,1,.86c0,.11-.13.16-.28.16H86.31l-.09-.29h4V28H87.06L87,27.74h3.29V27H88.68v.2c0,.09-.43.3-.81.3h-.14V24.16l1,.42h4L93.2,24l1,.79a.75.75,0,0,1-.44.21v2l-.07.06c.07.05.62.48,1,.79,0,.11-.13.16-.27.16H91.19v.85h2.57Zm-8-4.21-.08-.29h7.48L94.3,23s.61.46,1,.8c0,.11-.13.16-.26.16Zm2.42-.77c0,.08-.42.29-.81.29h-.13V20.28l1,.41h3.77l.46-.51,1,.75a.71.71,0,0,1-.41.21v1.94a1.46,1.46,0,0,1-.8.24h-.15V23H88.78Zm-.1,1.71v.75h1.59v-.75Zm1.59,1.81v-.77H88.68v.77ZM88.78,21v.71h3.93V21Zm3.93,1.73V22H88.78v.74Zm-1.52,2.17v.75h1.63v-.75Zm1.63,1H91.19v.77h1.63Zm-1.63,1.83h2l.52-.66a2.12,2.12,0,0,1-.71.17h-.16V27H91.19Z"/><path class="cls-1" d="M97.07,22.6c2.33.31,1.62,2,.76,1.4A2.73,2.73,0,0,0,97,22.67Zm2.85-.67c-.38,1.22-1.08,3.48-1.21,4a4.21,4.21,0,0,0-.14.91,9.48,9.48,0,0,1,.32,1.78c0,.48-.27.77-.69.77-.21,0-.39-.16-.45-.51.17-1,.12-1.93-.11-2.08a.93.93,0,0,0-.5-.15v-.21h.44c.14,0,.17,0,.28-.2.19-.35.19-.35,1.89-4.35Zm-2.29-1.69c2.47.27,1.85,2,.94,1.48a3.73,3.73,0,0,0-1-1.41Zm8.07,6.16s.46.46.72.77c0,.11-.12.16-.26.16h-.83v.92c0,.64-.14,1-1.23,1.11a1,1,0,0,0-.22-.63,1.38,1.38,0,0,0-.8-.31v-.15s.94.07,1.14.07.21-.06.21-.2v-.81h-3.34v1.74c0,.09-.38.3-.76.3h-.14v-2h-.88L99.23,27h1V24l1,.4h1.16v-.73H99.63l-.09-.28h1.67v-.92h-1.13L100,22.2h1.21v-.84H99.74l-.08-.29h1.55v-1l1.19.12c0,.13-.1.22-.32.25v.61h1.26v-1l1.2.12c0,.13-.09.22-.31.26v.6h.55l.49-.62s.57.43.9.75c0,.11-.12.16-.26.16h-1.68v.84h.42l.48-.61s.56.43.89.74a.23.23,0,0,1-.25.16h-1.54v.92h.58l.52-.66s.58.46,1,.79c0,.1-.13.15-.27.15h-2.85v.73h1.17l.42-.5,1,.75a.78.78,0,0,1-.42.2V27Zm-4.61-1.69v1h1.21v-1Zm0,2.33h1.21V26h-1.21Zm1-4.84h1.26v-.84h-1.26Zm0,1.21h1.26v-.92h-1.26Zm1.08,1.3v1h1.27v-1ZM104.43,27V26h-1.27v1Z"/><path class="cls-1" d="M111.54,25.05c-.07.09-.17.12-.38.13a5.26,5.26,0,0,1-1.33,2.1l.13.09c.83.75,2,.89,4.05.89,1.16,0,2.13,0,3.32-.07v.13a.87.87,0,0,0-.68.78h-3c-2.08,0-3-.36-3.87-1.41-.13-.16-.24-.14-.33,0s-.53.86-.78,1.33a.16.16,0,0,1-.07.2L108,28.3c.47-.29,1.19-.86,1.5-1a6.67,6.67,0,0,0,.74-2.16h-.8l-.33.29-.78-.61a3,3,0,0,1,.39-.17A15.62,15.62,0,0,0,109.76,23h-1.6l-.09-.29h1.73l.45-.46.9.82a.87.87,0,0,1-.54.16c-.29.44-.74,1.13-1.09,1.62h.63l.5-.49Zm-3-4.84c2.54.33,1.86,2.19.91,1.6a3.38,3.38,0,0,0-1-1.53Zm3,.68-.09-.29h3.83l.54-.52.91.87a.59.59,0,0,1-.41.11,10.94,10.94,0,0,1-1.9.87c.46.28.43.6.22.77h.86l.42-.49,1,.74a.82.82,0,0,1-.42.2v3.74c0,.6-.12.92-1.06,1a1,1,0,0,0-.13-.55.83.83,0,0,0-.56-.26v-.15s.56,0,.72,0,.17,0,.17-.18v-.93h-1.14v1.61a.89.89,0,0,1-.68.21h-.13V25.88h-1.18v1.71c0,.08-.36.29-.73.29h-.14V22.3l.93.4h1.44l-.07-.06a3.66,3.66,0,0,0-1.58-1.06l0-.15a5.83,5.83,0,0,1,1.79.36,9.43,9.43,0,0,0,1-.9Zm.93,2.1v1.13h1.18V23Zm1.18,2.6V24.42h-1.18v1.17Zm.81-2.6v1.13h1.14V23Zm1.14,2.6V24.42h-1.14v1.17Z"/><circle class="cls-1" cx="6" cy="84.31" r="6"/><polyline class="cls-2" points="6 84.31 30.95 15.36 50.45 15.36"/></g></g></svg>