<svg xmlns="http://www.w3.org/2000/svg" viewBox="0 0 185.62 29.2"><defs><style>.cls-1{fill:#800;}.cls-2{fill:none;stroke:#800;stroke-linecap:round;stroke-linejoin:round;}</style></defs><g id="圖層_2" data-name="圖層 2"><g id="圖層_2-2" data-name="圖層 2"><path class="cls-1" d="M143,10.13c1.48.6,2,1.22,2,2.27,0,1.29-1.05,2.12-2.67,2.12a4.3,4.3,0,0,1-2.17-.59l.06-1.59h.55l.34,1.46a2.27,2.27,0,0,0,1.13.25c1,0,1.71-.48,1.71-1.35,0-.7-.37-1.06-1.32-1.43l-.43-.19c-1.19-.5-1.92-1.13-1.92-2.24,0-1.3,1.07-2,2.51-2a3,3,0,0,1,1.84.58l-.06,1.48H144l-.34-1.4a1.68,1.68,0,0,0-.84-.19c-.89,0-1.51.43-1.51,1.26s.43,1.09,1.2,1.41Z"/><path class="cls-1" d="M150.49,7.42c0,1,0,2,0,3v.51c0,1,0,2,0,3l1.1.11v.36h-3.4V14l1.1-.11c0-1,0-2,0-3V10.4c0-1,0-2,0-3h-1.64L147.28,9h-.54l.08-2H153L153,9h-.54l-.37-1.56Z"/><path class="cls-1" d="M160.69,12.36l0,2H155V14l1-.11c0-1,0-2,0-3V10.4c0-1,0-2,0-2.95l-1-.11V7h5.49l0,1.93H160l-.33-1.49h-2.48c0,1,0,1.94,0,3h1.58l.15-1.07h.46v2.53h-.46l-.14-1.05h-1.59c0,1.11,0,2.12,0,3.11h2.69l.33-1.54Z"/><path class="cls-1" d="M164.89,11.39c0,.8,0,1.62,0,2.48L166,14v.36h-3.25V14l1-.11c0-1,0-2,0-3V10.4c0-1,0-2,0-2.95l-1-.11V7h2.95c2,0,2.86.85,2.86,2.18s-.86,2.23-3.11,2.23Zm0-4c0,1,0,2,0,3V11h.6a1.66,1.66,0,0,0,1.89-1.81,1.6,1.6,0,0,0-1.84-1.77Z"/><path class="cls-1" d="M185.62,10.28h-2.28v4.06h-2V10.28h-5.94V9.08L181.86,0h1.48V8.8h2.28Zm-4.3-1.48V2L176.5,8.8Z"/><path class="cls-1" d="M145.17,24c-.38.23-.85.51-1.43.83V28c0,.68-.13,1.06-1.2,1.17a1.13,1.13,0,0,0-.19-.66,1.11,1.11,0,0,0-.73-.31v-.15s.83.06,1,.06.2-.05.2-.18V25.29q-.39.23-.84.45a.36.36,0,0,1-.23.27l-.39-1.17c.3-.05.82-.19,1.46-.36V22.53h-1.27l-.08-.29h1.35V19.91l1.27.13c0,.14-.12.24-.37.28v1.92h.19l.46-.68a11.39,11.39,0,0,1,.84.81c0,.11-.12.16-.26.16h-1.23v1.7l1.39-.4Zm3,4.11q.33,0,.72,0h2v.13c-.29.06-.42.39-.43.77h-1.65a2.44,2.44,0,0,1-2.78-1.91,3.9,3.9,0,0,1-1.94,2.12l-.12-.11a5.51,5.51,0,0,0,1.51-3.82l1.31.24c0,.13-.14.22-.37.24a6.8,6.8,0,0,1-.28,1,2,2,0,0,0,1.09,1.09V24.74h-2.32l-.08-.28h4.36l.55-.68s.62.47,1,.8c0,.12-.13.16-.27.16h-2.31v1.42h.8l.54-.72s.62.5,1,.84a.24.24,0,0,1-.26.16h-2.06Zm-1.73-4.31c0,.09-.39.29-.78.29h-.13V20.17l1,.4h2.44l.45-.5,1,.74a.71.71,0,0,1-.42.21v2.61a1.23,1.23,0,0,1-.77.28H149v-.48h-2.58Zm0-2.9v1H149v-1ZM149,23.15v-1h-2.58v1Z"/><path class="cls-1" d="M155.17,23c0,.1-.13.16-.31.19V28.9a1.11,1.11,0,0,1-.78.28h-.17V23.87a9.5,9.5,0,0,1-1.22,1.36l-.14-.09a18.05,18.05,0,0,0,2.14-5.23l1.38.43c0,.12-.17.2-.38.19a14.69,14.69,0,0,1-1.09,2.29ZM155,29.09a7.85,7.85,0,0,0,2.16-3l1.25.61c0,.1-.14.16-.38.13a7.45,7.45,0,0,1-2.94,2.33Zm6.18-4.41s.61.5,1,.86c0,.11-.13.16-.27.16h-6.65l-.08-.29h1.49V22.74h-1.15l-.08-.29h1.23V20l1.3.13c0,.15-.11.25-.36.29v2h1.62v-2.4l1.31.12c0,.15-.11.25-.36.29v2h.33l.53-.71s.59.49.94.84c0,.11-.13.16-.27.16h-1.53v2.67h.5Zm-3.6.73h1.62V22.74h-1.62Zm1.49.88c3.6,1.15,3,3.46,1.88,2.75a8.29,8.29,0,0,0-2-2.67Z"/><path class="cls-1" d="M167.68,25.77s.59.46.95.79c0,.11-.13.16-.27.16h-1.79v2.13a1,1,0,0,1-.74.23h-.16V26.72H163.9l-.08-.29h1.85V25.1h-1.49l-.08-.29h2.19a13.15,13.15,0,0,0,.46-1.85l1.22.33c0,.13-.16.21-.37.2a7.85,7.85,0,0,1-1,1.32H167l.47-.58s.52.41.84.72c0,.1-.13.15-.27.15h-1.42v1.33h.61Zm-2-3.21V21.24h-1.31l-.08-.29h1.39V19.88l1.16.11c0,.13-.1.22-.33.26V21h.36l.43-.55s.5.4.81.68c0,.11-.12.16-.26.16H166.5v1.32h.72l.45-.58s.53.4.85.71a.24.24,0,0,1-.26.16H164l-.08-.29ZM164.6,23c2,.78,1.09,2.21.38,1.55a3.74,3.74,0,0,0-.49-1.5Zm8.47,1.2c-.07.09-.17.12-.39.15a8.55,8.55,0,0,1-1,2.81,6.12,6.12,0,0,0,1.6,1.09l0,.1a1,1,0,0,0-.79.7,5.49,5.49,0,0,1-1.27-1.23,5.6,5.6,0,0,1-1.68,1.36l-.09-.13a5.27,5.27,0,0,0,1.42-1.74,8.66,8.66,0,0,1-1-3.07h-.37v4.63a.84.84,0,0,1-.71.28h-.15V20.09l1,.43h1.94l.44-.44.85.69a.67.67,0,0,1-.37.16c0,1.39-.11,2-.43,2.19a1.44,1.44,0,0,1-.94.25.56.56,0,0,0-.15-.48,1.37,1.37,0,0,0-.64-.25v-.15l.9.05c.13,0,.2,0,.25-.07a4.39,4.39,0,0,0,.18-1.66h-2.16V24h2.23l.47-.5Zm-3,0a6.09,6.09,0,0,0,1.14,2.37,10.14,10.14,0,0,0,.58-2.37Z"/><path class="cls-1" d="M178.15,20.33c0,.12-.16.2-.39.2a14.44,14.44,0,0,1-.92,2.11l.44.17c0,.1-.12.16-.3.19v5.91a1.12,1.12,0,0,1-.76.28h-.17V23.94A9.26,9.26,0,0,1,175,25.18l-.14-.08a19.24,19.24,0,0,0,1.89-5.19Zm-.81,8.72a7.8,7.8,0,0,0,2.43-1.68L181,28c-.08.11-.25.15-.53.1a9.34,9.34,0,0,1-3,1.05Zm5.87-9.12s.64.49,1,.84c0,.11-.13.16-.27.16h-1.9v.8h.76l.43-.46.91.68a.53.53,0,0,1-.32.16v1.35a1.4,1.4,0,0,1-.78.25h0l.73.56a.63.63,0,0,1-.35.18v2.93a1.35,1.35,0,0,1-.78.26h-.16v-.4h-3.28v.23c0,.08-.38.28-.76.28h-.14v-4l-.28,0h-.13V21.33l1,.4h.75v-.8H178l-.08-.29h4.76Zm-.29,3.68v-.18H178.8v.11c0,.05-.1.12-.26.17l.75.33h3.13l.44-.49ZM178.8,22v1.14h.83V22Zm3.7,3v-.66h-3.28V25Zm-3.28,1h3.28v-.68h-3.28Zm3.28,1v-.7h-3.28V27Zm-1.23-6h-.83v.8h.83Zm0,2.22V22h-.83v1.14Zm0,4.42c4.39.34,2.75,2.2,1.93,1.44a4.61,4.61,0,0,0-2-1.31Zm.8-5.56v1.14h.84V22Z"/><circle class="cls-1" cx="6" cy="19.54" r="6"/><line class="cls-2" x1="6" y1="19.54" x2="136.49" y2="19.54"/></g></g></svg>