<svg xmlns="http://www.w3.org/2000/svg" viewBox="0 0 60.24 100"><defs><style>.cls-1{fill:#800;}.cls-2{fill:#b79c80;}</style></defs><g id="圖層_2" data-name="圖層 2"><g id="圖層_2-2" data-name="圖層 2"><path class="cls-1" d="M38,42.25h0A21.12,21.12,0,0,1,42.07,48a30.55,30.55,0,0,0,.82-3.39,23.71,23.71,0,0,0-3.28-4.06h0c-5-5-12.17-7.58-21.18-7.58L18,33a13.72,13.72,0,0,0-.81,2.39c.42,0,.82-.06,1.24-.06C26.8,35.36,33.36,37.68,38,42.25Z"/><path class="cls-1" d="M43.23,31.61A20.52,20.52,0,0,1,46,32a19.8,19.8,0,0,0-4.85-6.9,46.52,46.52,0,0,1-5.55-1.52C38.82,25.92,41.58,28.44,43.23,31.61Z"/><path class="cls-1" d="M47.24,38.41h0c0-.14,0-.28,0-.43a14,14,0,0,0-2.39-.8c0,.43.05.85.05,1.3,0,11.4-4.53,19.47-12.75,23.44a26.76,26.76,0,0,0,3.37.8C43,58,47.22,49.67,47.24,38.51h0v-.1Z"/><path class="cls-1" d="M18.43,64.72A14.66,14.66,0,0,1,11.6,37,19.61,19.61,0,0,1,12,34.26a17,17,0,0,0,6.41,32.81A37.51,37.51,0,0,0,27.77,66a25.17,25.17,0,0,1-3.36-1.7A37.92,37.92,0,0,1,18.43,64.72Z"/><path class="cls-1" d="M32,16.56c1-.4,2-.79,3.1-1.18a8.76,8.76,0,0,0,1.66-4.47,7.64,7.64,0,0,0-3.07-6.32,1.17,1.17,0,1,0-1.51,1.8,5.35,5.35,0,0,1,2.22,4.41c-.09,1.79-1.23,3.71-3.16,5.45Z"/><path class="cls-1" d="M31.53,79.27c.88.38,1.76.74,2.65,1.1,6.88-4.48,13.06-9.61,13.06-18.7a37.31,37.31,0,0,0-1.08-9.32,28.18,28.18,0,0,1-1.72,3.38,37.35,37.35,0,0,1,.44,5.94C44.88,70.16,38.65,74.78,31.53,79.27Z"/><path class="cls-1" d="M30.38,84.52c-.44-.17-.86-.36-1.29-.54-.49.45-.91.91-1.34,1.36a33.89,33.89,0,0,0,0,14.6q1.18.06,2.37.06h.05A31.16,31.16,0,0,1,30.38,84.52Z"/><path class="cls-1" d="M30.66,80.51s-.05,0-.07,0c-6-2.53-12.16-5.15-24.32-5.15h0a6.23,6.23,0,1,0,0,12.46h0a53.55,53.55,0,0,0,23.79-4.93c5.45,3,9.31,9.07,10.91,16,.79-.16,1.58-.36,2.36-.56C41.54,90.52,37.06,83.72,30.66,80.51ZM6.27,85.42h0a3.88,3.88,0,1,1,0-7.76h0c10,0,15.62,1.76,20.81,3.88C21.89,83.65,16.28,85.42,6.27,85.42Z"/><path class="cls-1" d="M29.66,19.71a7,7,0,0,1-2.07-1.28c-5.34,2.2-11,4.09-21.32,4.09a3.88,3.88,0,1,1,0-7.76h0c8.74,0,14.12,1.34,18.8,3.09l1.46-.59a5.7,5.7,0,0,1-.69-1.62C21,13.86,15.31,12.41,6.27,12.41a6.23,6.23,0,1,0,0,12.46h0a53.58,53.58,0,0,0,23.86-4.95Z"/><path class="cls-2" d="M15.37,61.67c0-11.43,4.51-19.52,12.72-23.5a25.88,25.88,0,0,0-3.34-.8C17.21,42.08,13,50.47,13,61.67c0,.15,0,.29,0,.43a13.13,13.13,0,0,0,2.41.81C15.41,62.49,15.37,62.09,15.37,61.67Z"/><path class="cls-2" d="M41.82,33a37.68,37.68,0,0,0-9.37,1.11,27.62,27.62,0,0,1,3.35,1.69,38.44,38.44,0,0,1,6-.45A14.66,14.66,0,0,1,48.66,63a18.16,18.16,0,0,1-.43,2.77A17,17,0,0,0,41.82,33Z"/><path class="cls-2" d="M18.18,52a29.85,29.85,0,0,0-.8,3.35c4.75,7.5,13.17,11.68,24.44,11.68l.42,0a11.72,11.72,0,0,0,.81-2.38c-.41,0-.82,0-1.23,0C30.32,64.72,22.18,60.23,18.18,52Z"/><path class="cls-2" d="M30.75,19.63l-.16.08a69.84,69.84,0,0,1-9,3.32C16.72,26.83,13,31.46,13,38.41v.1a37.68,37.68,0,0,0,1.1,9.18,29.13,29.13,0,0,1,1.71-3.34,37.92,37.92,0,0,1-.45-5.88C15.4,29.22,22.85,24.56,30.75,19.63Z"/><path class="cls-2" d="M19.12,75.06a48.42,48.42,0,0,1,5.54,1.5c-3.25-2.33-6-4.88-7.67-8.1A18,18,0,0,1,14.2,68,19.87,19.87,0,0,0,19.12,75.06Z"/><path class="cls-2" d="M28.23,83.61c-1,.43-2.11.85-3.23,1.24a21.34,21.34,0,0,0-5.26,14.07c.79.17,1.58.31,2.37.44.08-5.44,1.57-10.37,7-15.38h0Z"/><path class="cls-2" d="M54,12.41h0c-10.58,0-16.64,2-22,4.16,1,.44,2.09.87,3.17,1.28,4.68-1.75,10.06-3.09,18.8-3.09h0a3.88,3.88,0,1,1,0,7.76h0C44.61,22.52,39.1,21,34.17,19c-1.11-.45-3.59-1.48-3.59-1.49C29,16.88,27,15.47,28.45,11c.25-.72.56-1.47.87-2.17,1.06-2.45,2.16-5,.81-8.14A1.18,1.18,0,0,0,28,1.63c1,2.23.18,4-.8,6.31-.31.75-.65,1.52-.93,2.34-1.54,4.54-.3,7.88,3.44,9.43h0c1.17.5,2.35,1,3.57,1.48l.09,0h0c5,2,10.93,3.63,20.66,3.63h0a6.23,6.23,0,1,0,0-12.46Z"/><path class="cls-2" d="M54,75.32a56.7,56.7,0,0,0-15.26,1.83c-1.44,1.13-3,2.19-4.53,3.21.33.13.65.27,1,.39C39.87,79,45.25,77.67,54,77.67h0a3.88,3.88,0,1,1,0,7.76h0c-11.69,0-17.37-2.41-23.4-5,0,0,.07,0,.07,0a21,21,0,0,1,6.28,4.9A54.32,54.32,0,0,0,54,87.78h0a6.23,6.23,0,1,0,0-12.46Z"/></g></g></svg>